<svg xmlns="http://www.w3.org/2000/svg" viewBox="0 0 1440 720" width="1440" height="720">

<rect width="1440" height="720" fill="#faf8f4"/>

<!-- ORGANIC BACKGROUND BLOBS -->
<path d="M-80,300 C60,220 200,260 280,340 C360,420 320,550 220,620 C120,690 -40,680 -100,580 C-140,510 -140,360 -80,300Z" fill="#d4dbb8" opacity="0.2"/>
<path d="M600,0 C750,20 880,-10 950,60 C1020,130 980,240 880,280 C780,320 660,280 600,200 C540,120 500,-15 600,0Z" fill="#9da874" opacity="0.08"/>
<path d="M1050,400 C1150,350 1300,370 1400,440 C1500,510 1480,650 1380,720 L1000,720 C960,660 950,550 1000,470 C1030,420 1040,410 1050,400Z" fill="#7b3437" opacity="0.06"/>
<path d="M1200,-20 L1440,-20 L1440,180 C1380,220 1300,200 1240,160 C1180,120 1160,50 1200,-20Z" fill="#8c7054" opacity="0.08"/>

<!-- STAMP LEAF - TOP LEFT -->
<g transform="translate(60, 40) rotate(12) scale(0.7)">
  <path d="M50,420 C55,380 62,340 65,300 C68,260 72,220 78,180 C84,140 90,105 95,80 C98,60 100,45 98,35 C96,25 92,22 88,28 C84,34 80,48 76,68 C72,88 68,115 62,150 C56,185 50,225 45,265 C40,305 38,345 38,380 C38,400 42,415 50,420Z" fill="#8c7054" opacity="0.75"/>
  <path d="M58,360 C60,340 64,310 66,280 C68,250 70,225 74,195 C76,175 80,155 82,140 C78,145 72,165 68,190 C64,215 60,245 56,280 C52,315 52,345 58,360Z" fill="#faf8f4" opacity="0.4"/>
  <path d="M70,240 C72,225 75,205 78,190 C74,200 70,218 68,238Z" fill="#faf8f4" opacity="0.5"/>
  <path d="M62,310 C63,295 65,278 64,295 C63,305 62,315 62,310Z" fill="#faf8f4" opacity="0.45"/>
  <path d="M50,415 C54,370 64,280 78,190 C88,130 96,70 97,40" stroke="#6b5030" stroke-width="1.8" fill="none" opacity="0.3" stroke-linecap="round"/>
  <path d="M60,340 C52,330 42,318 35,310" stroke="#6b5030" stroke-width="0.8" fill="none" opacity="0.2"/>
  <path d="M66,280 C56,268 45,258 38,252" stroke="#6b5030" stroke-width="0.8" fill="none" opacity="0.2"/>
  <path d="M74,220 C64,208 52,200 45,196" stroke="#6b5030" stroke-width="0.8" fill="none" opacity="0.2"/>
  <path d="M80,170 C72,160 62,152 55,148" stroke="#6b5030" stroke-width="0.8" fill="none" opacity="0.2"/>
  <path d="M66,280 C74,270 84,260 92,256" stroke="#6b5030" stroke-width="0.8" fill="none" opacity="0.2"/>
  <path d="M72,230 C80,222 90,214 98,210" stroke="#6b5030" stroke-width="0.8" fill="none" opacity="0.2"/>
  <path d="M80,170 C88,164 96,158 102,156" stroke="#6b5030" stroke-width="0.8" fill="none" opacity="0.2"/>
  <circle cx="35" cy="350" r="2" fill="#8c7054" opacity="0.3"/>
  <circle cx="100" cy="120" r="1.5" fill="#8c7054" opacity="0.25"/>
  <circle cx="42" cy="290" r="1" fill="#8c7054" opacity="0.2"/>
  <path d="M105,90 C108,85 112,88 110,93 C108,96 104,95 105,90Z" fill="#8c7054" opacity="0.2"/>
</g>

<!-- STAMP LEAF - CENTER TOP -->
<g transform="translate(520, -20) rotate(-8) scale(0.65)">
  <path d="M80,500 C85,440 95,370 105,300 C115,230 125,170 132,120 C138,80 140,50 136,30 C132,15 126,10 120,18 C114,26 108,50 102,80 C96,110 88,155 80,200 C72,245 65,295 60,345 C55,395 55,440 60,475 C65,500 72,510 80,500Z" fill="#7b8255" opacity="0.55"/>
  <path d="M90,420 C92,380 98,330 104,280 C110,230 116,185 120,150 C114,160 106,200 100,245 C94,290 88,340 86,390 C85,410 87,425 90,420Z" fill="#faf8f4" opacity="0.5"/>
  <path d="M100,320 C104,290 110,255 115,225 C110,240 104,270 100,300Z" fill="#faf8f4" opacity="0.55"/>
  <path d="M76,420 C74,400 73,375 75,355 C77,340 80,360 78,385 C77,400 76,415 76,420Z" fill="#faf8f4" opacity="0.4"/>
  <path d="M78,495 C82,430 95,330 110,230 C125,140 136,60 137,25" stroke="#4a5530" stroke-width="2" fill="none" opacity="0.25" stroke-linecap="round"/>
  <path d="M88,400 C78,388 65,376 55,370" stroke="#4a5530" stroke-width="0.8" fill="none" opacity="0.15"/>
  <path d="M96,340 C86,328 72,318 62,314" stroke="#4a5530" stroke-width="0.8" fill="none" opacity="0.15"/>
  <path d="M104,280 C94,268 80,260 70,258" stroke="#4a5530" stroke-width="0.8" fill="none" opacity="0.15"/>
  <path d="M110,230 C120,220 132,212 142,210" stroke="#4a5530" stroke-width="0.8" fill="none" opacity="0.15"/>
  <path d="M118,180 C128,172 138,166 146,164" stroke="#4a5530" stroke-width="0.8" fill="none" opacity="0.15"/>
  <circle cx="55" cy="380" r="3" fill="#7b8255" opacity="0.2"/>
  <circle cx="145" cy="180" r="2" fill="#7b8255" opacity="0.15"/>
</g>

<!-- STAMP LEAF - CENTER (bordo tinted) -->
<g transform="translate(680, 280) rotate(25) scale(0.5)">
  <path d="M0,0 C30,-20 70,-50 100,-90 C130,-130 140,-170 130,-190 C120,-210 100,-200 80,-175 C60,-150 40,-110 25,-70 C15,-40 5,-15 0,0Z" fill="#7b3437" opacity="0.3"/>
  <path d="M20,-30 C35,-55 55,-85 75,-115 C90,-140 100,-160 105,-170 C95,-155 80,-130 65,-105 C50,-80 35,-55 25,-35Z" fill="#faf8f4" opacity="0.5"/>
  <path d="M50,-80 C60,-100 72,-120 80,-135 C74,-125 65,-108 55,-90Z" fill="#faf8f4" opacity="0.4"/>
  <circle cx="110" cy="-160" r="4" fill="#7b3437" opacity="0.2"/>
  <circle cx="90" cy="-180" r="3" fill="#7b3437" opacity="0.15"/>
  <path d="M125,-185 C130,-190 135,-185 132,-178 C128,-172 122,-178 125,-185Z" fill="#7b3437" opacity="0.15"/>
</g>

<!-- SCATTERED STAMP FRAGMENTS -->
<g transform="translate(400, 380) rotate(-35) scale(0.35)">
  <path d="M0,180 C8,150 20,110 28,75 C36,40 38,15 32,8 C26,2 20,10 14,28 C8,46 4,75 2,110 C0,140 -2,165 0,180Z" fill="#7b8255" opacity="0.4"/>
  <path d="M6,140 C10,118 16,90 22,65 C18,78 12,100 8,125Z" fill="#faf8f4" opacity="0.45"/>
</g>
<g transform="translate(750, 150) rotate(60) scale(0.25)">
  <path d="M0,120 C6,100 16,70 22,45 C28,20 26,5 20,8 C14,12 6,35 2,65 C0,85 -2,108 0,120Z" fill="#8c7054" opacity="0.35"/>
  <path d="M4,90 C8,72 14,50 18,35 C14,45 10,65 6,80Z" fill="#faf8f4" opacity="0.4"/>
</g>
<g transform="translate(580, 450)">
  <circle cx="0" cy="0" r="8" fill="#7b3437" opacity="0.12"/>
  <circle cx="18" cy="-8" r="5" fill="#7b3437" opacity="0.08"/>
  <circle cx="-10" cy="12" r="4" fill="#a3585b" opacity="0.08"/>
</g>
<g transform="translate(320, 520)" opacity="0.15">
  <circle cx="0" cy="0" r="3" fill="#7b8255"/>
  <circle cx="8" cy="-4" r="1.5" fill="#7b8255"/>
  <circle cx="-5" cy="6" r="2" fill="#7b8255"/>
  <circle cx="12" cy="3" r="1" fill="#7b8255"/>
</g>
<g transform="translate(850, 350)" opacity="0.1">
  <circle cx="0" cy="0" r="4" fill="#8c7054"/>
  <circle cx="10" cy="-6" r="2" fill="#8c7054"/>
  <circle cx="-7" cy="8" r="2.5" fill="#8c7054"/>
  <circle cx="15" cy="5" r="1.5" fill="#8c7054"/>
</g>

<!-- LARGE OLIVE LEAF - LEFT SIDE -->
<g transform="translate(-40, 320) rotate(-15) scale(1)">
  <path d="M0,400 C30,340 80,260 105,190 C130,120 125,65 100,75 C75,85 45,145 25,225 C10,285 0,350 0,400Z" fill="#9da874" opacity="0.3"/>
  <path d="M5,380 C28,325 68,255 90,195 C108,145 108,100 98,105 C88,110 60,165 35,240 C18,295 8,350 5,380Z" fill="#faf8f4" opacity="0.35"/>
  <path d="M3,390 C28,330 70,250 98,185" stroke="#7b8255" stroke-width="2" fill="none" opacity="0.15" stroke-linecap="round"/>
</g>

<!-- BOTTOM BLOBS -->
<path d="M350,720 C400,670 520,650 650,670 C780,690 850,720 900,720Z" fill="#d4dbb8" opacity="0.18"/>
<path d="M-20,720 C20,680 100,660 180,680 C260,700 300,720 320,720Z" fill="#b09476" opacity="0.12"/>

<!-- RIGHT SIDE - LEAF BEHIND FLOWER -->
<g transform="translate(1100, 100) rotate(170) scale(1.2)">
  <path d="M0,450 C30,380 80,290 110,210 C140,130 135,65 110,75 C85,85 55,150 30,240 C12,310 2,380 0,450Z" fill="#9da874" opacity="0.55"/>
  <path d="M10,400 C30,340 65,270 90,205 C110,150 110,105 102,110 C94,115 68,170 45,245 C28,305 14,365 10,400Z" fill="#faf8f4" opacity="0.35"/>
  <path d="M20,350 C35,305 58,245 78,195 C68,215 50,265 35,315Z" fill="#faf8f4" opacity="0.3"/>
  <path d="M2,445 C28,375 75,280 108,200" stroke="#5a6338" stroke-width="2.5" fill="none" opacity="0.18" stroke-linecap="round"/>
  <path d="M15,380 C8,368 -2,358 -10,352" stroke="#5a6338" stroke-width="1" fill="none" opacity="0.12"/>
  <path d="M30,320 C22,308 12,300 4,296" stroke="#5a6338" stroke-width="1" fill="none" opacity="0.12"/>
  <path d="M50,260 C60,250 72,242 82,238" stroke="#5a6338" stroke-width="1" fill="none" opacity="0.12"/>
  <path d="M70,210 C80,202 92,196 100,194" stroke="#5a6338" stroke-width="1" fill="none" opacity="0.12"/>
  <circle cx="-8" cy="365" r="3" fill="#7b8255" opacity="0.15"/>
  <circle cx="85" cy="225" r="2" fill="#7b8255" opacity="0.12"/>
</g>

<!-- SECOND LEAF BEHIND FLOWER -->
<g transform="translate(1250, 60) rotate(200) scale(0.9)">
  <path d="M0,350 C22,290 60,210 80,150 C100,90 95,45 75,55 C55,65 30,120 15,190 C4,245 0,305 0,350Z" fill="#8c7054" opacity="0.45"/>
  <path d="M5,330 C20,275 50,205 68,150 C82,110 80,75 72,80 C64,85 40,140 22,210 C10,260 6,310 5,330Z" fill="#faf8f4" opacity="0.3"/>
  <path d="M3,340 C20,280 52,200 76,145" stroke="#6b5030" stroke-width="1.5" fill="none" opacity="0.12" stroke-linecap="round"/>
</g>

<!-- MAIN FLOWER -->
<g transform="translate(1180, 480) scale(1.4)">
  <path d="M0,0 C-50,-25 -120,-80 -135,-150 C-150,-220 -105,-250 -55,-220 C-18,-198 -5,-135 0,-65Z" fill="#5a2325" opacity="0.55"/>
  <path d="M0,0 C50,-25 120,-80 135,-150 C150,-220 105,-250 55,-220 C18,-198 5,-135 0,-65Z" fill="#5a2325" opacity="0.55"/>
  <path d="M0,5 C-55,-18 -140,-55 -160,-120 C-180,-185 -148,-225 -100,-205 C-65,-190 -32,-140 0,-70Z" fill="#7b3437" opacity="0.88"/>
  <path d="M0,5 C55,-18 140,-55 160,-120 C180,-185 148,-225 100,-205 C65,-190 32,-140 0,-70Z" fill="#7b3437" opacity="0.88"/>
  <path d="M-8,-5 C-45,-28 -110,-60 -135,-115 C-150,-155 -140,-192 -112,-185 C-84,-178 -48,-135 -15,-75Z" fill="#8a3c3f" opacity="0.35"/>
  <path d="M8,-5 C45,-28 110,-60 135,-115 C150,-155 140,-192 112,-185 C84,-178 48,-135 15,-75Z" fill="#8a3c3f" opacity="0.35"/>
  <path d="M0,-45 C-28,-78 -60,-135 -48,-185 C-35,-230 -12,-245 0,-228 C12,-245 35,-230 48,-185 C60,-135 28,-78 0,-45Z" fill="#a3585b" opacity="0.72"/>
  <path d="M0,-52 C-18,-78 -42,-125 -35,-165 C-28,-200 -12,-212 0,-198 C12,-212 28,-200 35,-165 C42,-125 18,-78 0,-52Z" fill="#c4787b" opacity="0.28"/>
  <path d="M0,18 C-38,-5 -95,-18 -108,-60 C-122,-102 -85,-122 -48,-100 C-24,-86 -10,-48 0,-12Z" fill="#6b2a2d" opacity="0.82"/>
  <path d="M0,18 C38,-5 95,-18 108,-60 C122,-102 85,-122 48,-100 C24,-86 10,-48 0,-12Z" fill="#6b2a2d" opacity="0.82"/>
  <g stroke="#4a1a1c" stroke-width="0.8" fill="none" opacity="0.2">
    <path d="M0,12 L-22,-35"/><path d="M0,12 L-40,-22"/><path d="M0,12 L-52,-10"/>
    <path d="M0,12 L22,-35"/><path d="M0,12 L40,-22"/><path d="M0,12 L52,-10"/>
    <path d="M0,12 L-12,-50"/><path d="M0,12 L12,-50"/>
  </g>
  <ellipse cx="0" cy="-35" rx="22" ry="16" fill="#f4f5ec" opacity="0.55"/>
  <ellipse cx="0" cy="-37" rx="14" ry="10" fill="#d4dbb8" opacity="0.65"/>
  <ellipse cx="0" cy="-39" rx="7" ry="5" fill="#7b8255" opacity="0.75"/>
  <line x1="-6" y1="-40" x2="-18" y2="-65" stroke="#f0ece4" stroke-width="1.2" opacity="0.4"/>
  <line x1="0" y1="-42" x2="0" y2="-70" stroke="#f0ece4" stroke-width="1.2" opacity="0.4"/>
  <line x1="6" y1="-40" x2="18" y2="-65" stroke="#f0ece4" stroke-width="1.2" opacity="0.4"/>
  <line x1="-10" y1="-38" x2="-25" y2="-58" stroke="#f0ece4" stroke-width="1" opacity="0.3"/>
  <line x1="10" y1="-38" x2="25" y2="-58" stroke="#f0ece4" stroke-width="1" opacity="0.3"/>
  <circle cx="-18" cy="-67" r="2.5" fill="#b09476" opacity="0.5"/>
  <circle cx="0" cy="-72" r="2.5" fill="#b09476" opacity="0.5"/>
  <circle cx="18" cy="-67" r="2.5" fill="#b09476" opacity="0.5"/>
  <circle cx="-25" cy="-60" r="2" fill="#8c7054" opacity="0.35"/>
  <circle cx="25" cy="-60" r="2" fill="#8c7054" opacity="0.35"/>
</g>

<!-- Buds and stems near flower -->
<circle cx="1350" cy="620" r="8" fill="#7b3437" opacity="0.35"/>
<circle cx="1370" cy="640" r="5.5" fill="#a3585b" opacity="0.25"/>
<circle cx="1335" cy="645" r="4" fill="#7b3437" opacity="0.2"/>
<path d="M1180,530 C1230,560 1300,600 1350,620" stroke="#5a6338" stroke-width="1.5" fill="none" opacity="0.25" stroke-linecap="round"/>

<!-- Small stamp leaf near flower -->
<g transform="translate(1050, 580) rotate(-30) scale(0.35)">
  <path d="M0,200 C10,165 28,120 38,80 C48,40 45,10 35,18 C25,26 12,60 5,105 C0,140 -2,175 0,200Z" fill="#7b8255" opacity="0.45"/>
  <path d="M5,170 C12,142 22,108 30,78 C24,95 16,125 10,155Z" fill="#faf8f4" opacity="0.4"/>
</g>

<!-- SPECKLE FIELD -->
<g opacity="0.06">
  <circle cx="80" cy="80" r="2" fill="#8c7054"/><circle cx="180" cy="120" r="1.5" fill="#7b8255"/>
  <circle cx="280" cy="60" r="2" fill="#8c7054"/><circle cx="420" cy="100" r="1.5" fill="#7b8255"/>
  <circle cx="520" cy="55" r="2" fill="#8c7054"/><circle cx="680" cy="90" r="1.5" fill="#7b3437"/>
  <circle cx="780" cy="45" r="2" fill="#8c7054"/><circle cx="920" cy="80" r="1.5" fill="#7b8255"/>
  <circle cx="1020" cy="110" r="2" fill="#8c7054"/>
  <circle cx="120" cy="220" r="1.5" fill="#7b8255"/><circle cx="250" cy="260" r="2" fill="#8c7054"/>
  <circle cx="380" cy="200" r="1.5" fill="#7b3437"/><circle cx="480" cy="250" r="2" fill="#8c7054"/>
  <circle cx="620" cy="230" r="1.5" fill="#7b8255"/><circle cx="750" cy="200" r="2" fill="#8c7054"/>
  <circle cx="880" cy="260" r="1.5" fill="#7b8255"/><circle cx="960" cy="220" r="2" fill="#7b3437"/>
  <circle cx="150" cy="400" r="2" fill="#8c7054"/><circle cx="300" cy="440" r="1.5" fill="#7b8255"/>
  <circle cx="450" cy="380" r="2" fill="#8c7054"/><circle cx="550" cy="420" r="1.5" fill="#7b3437"/>
  <circle cx="700" cy="400" r="2" fill="#8c7054"/><circle cx="820" cy="450" r="1.5" fill="#7b8255"/>
  <circle cx="950" cy="410" r="2" fill="#8c7054"/>
  <circle cx="100" cy="580" r="1.5" fill="#7b8255"/><circle cx="220" cy="620" r="2" fill="#8c7054"/>
  <circle cx="380" cy="560" r="1.5" fill="#7b3437"/><circle cx="500" cy="600" r="2" fill="#8c7054"/>
  <circle cx="640" cy="580" r="1.5" fill="#7b8255"/><circle cx="780" cy="620" r="2" fill="#8c7054"/>
  <circle cx="900" cy="570" r="1.5" fill="#7b8255"/>
</g>

<circle cx="460" cy="320" r="4" fill="#8c7054" opacity="0.06"/>
<circle cx="720" cy="480" r="5" fill="#7b8255" opacity="0.05"/>
<circle cx="340" cy="180" r="3.5" fill="#7b3437" opacity="0.05"/>
<circle cx="820" cy="140" r="4" fill="#8c7054" opacity="0.04"/>
<circle cx="600" cy="600" r="3" fill="#9da874" opacity="0.06"/>

<g transform="translate(480, 540)" opacity="0.08">
  <circle cx="0" cy="0" r="2.5" fill="#7b8255"/><circle cx="6" cy="-3" r="1" fill="#7b8255"/><circle cx="-4" cy="5" r="1.5" fill="#7b8255"/>
</g>
<g transform="translate(720, 260)" opacity="0.06">
  <circle cx="0" cy="0" r="3" fill="#8c7054"/><circle cx="8" cy="-5" r="1.2" fill="#8c7054"/><circle cx="-3" cy="7" r="1" fill="#8c7054"/>
</g>
<g transform="translate(280, 460)" opacity="0.07">
  <circle cx="0" cy="0" r="2" fill="#7b3437"/><circle cx="5" cy="-2" r="1" fill="#7b3437"/>
</g>

</svg>
